<svg xmlns="http://www.w3.org/2000/svg" width="64" height="64" viewBox="0 0 64 64" fill="none">
  <!-- 背景圆形 -->
  <circle cx="32" cy="32" r="30" fill="#4A90E2" />
  
  <!-- 日历外框 -->
  <rect x="18" y="16" width="28" height="32" rx="2" fill="white" />
  
  <!-- 日历顶部 -->
  <rect x="18" y="16" width="28" height="6" rx="2" fill="#F56C6C" />
  
  <!-- 日历格子 -->
  <rect x="22" y="26" width="4" height="4" rx="1" fill="#67C23A" />
  <rect x="30" y="26" width="4" height="4" rx="1" fill="#67C23A" />
  <rect x="38" y="26" width="4" height="4" rx="1" fill="#67C23A" />
  
  <rect x="22" y="34" width="4" height="4" rx="1" fill="#67C23A" />
  <rect x="30" y="34" width="4" height="4" rx="1" fill="#E6A23C" />
  <rect x="38" y="34" width="4" height="4" rx="1" fill="#67C23A" />
  
  <rect x="22" y="42" width="4" height="4" rx="1" fill="#67C23A" />
  <rect x="30" y="42" width="4" height="4" rx="1" fill="#67C23A" />
  <rect x="38" y="42" width="4" height="4" rx="1" fill="#F56C6C" />
  
  <!-- 时钟指针 -->
  <circle cx="48" cy="48" r="10" fill="#F2F6FC" stroke="#409EFF" stroke-width="2" />
  <line x1="48" y1="48" x2="48" y2="42" stroke="#409EFF" stroke-width="2" stroke-linecap="round" />
  <line x1="48" y1="48" x2="52" y2="50" stroke="#409EFF" stroke-width="2" stroke-linecap="round" />
  <circle cx="48" cy="48" r="1.5" fill="#409EFF" />
</svg> 